<?xml version="1.0" standalone="no"?>
<!DOCTYPE svg PUBLIC "-//W3C//DTD SVG 1.1//EN" "http://www.w3.org/Graphics/SVG/1.1/DTD/svg11.dtd" >
<svg xmlns="http://www.w3.org/2000/svg" xmlns:xlink="http://www.w3.org/1999/xlink" version="1.1">
<metadata>
Created by FontForge 20170731 at Sat Nov 12 03:33:57 2016
 By Aleksey,,,
memesbruh03
</metadata>
<defs>
<font id="Gamer" horiz-adv-x="384" >
  <font-face 
    font-family="Gamer"
    font-weight="500"
    font-stretch="normal"
    units-per-em="1024"
    panose-1="2 0 6 3 0 0 0 0 0 0"
    ascent="768"
    descent="-256"
    x-height="384"
    cap-height="384"
    bbox="-64 -128 512 682"
    underline-thickness="51"
    underline-position="-203"
    unicode-range="U+0020-F100"
  />
<missing-glyph horiz-adv-x="374" 
d="M34 0v682h272v-682h-272zM68 34h204v614h-204v-614z" />
    <glyph glyph-name=".notdef" horiz-adv-x="374" 
d="M34 0v682h272v-682h-272zM68 34h204v614h-204v-614z" />
    <glyph glyph-name=".null" horiz-adv-x="0" 
 />
    <glyph glyph-name="nonmarkingreturn" horiz-adv-x="341" 
 />
    <glyph glyph-name="space" unicode=" " horiz-adv-x="320" 
 />
    <glyph glyph-name="exclam" unicode="!" horiz-adv-x="192" 
d="M64 64h64v-64h-64h-64v64h64zM64 128h-64v64v64v64v64h64h64v-64v-64v-64v-64h-64z" />
    <glyph glyph-name="quotedbl" unicode="&#x22;" 
d="M192 192v64v64v64h64h64v-64v-64h-64v-64h-64zM0 192v64v64v64h64h64v-64v-64h-64v-64h-64z" />
    <glyph glyph-name="numbersign" unicode="#" horiz-adv-x="512" 
d="M320 0h-64v64h-64v-64h-64h-64v64h-64v64h64v64v64h-64v64h64v64h64h64v-64h64v64h64h64v-64h64v-64h-64v-64v-64h64v-64h-64v-64h-64zM256 128v64v64h-64v-64v-64h64z" />
    <glyph glyph-name="dollar" unicode="$" 
d="M128 -64v64h-64h-64v64v64h64h64v-64h64v64v64h-64h-64h-64v64v64v64h64h64v64h64v-64h64h64v-64h-64h-64h-64v-64h64h64h64v-64v-64v-64v-64h-64h-64v-64h-64z" />
    <glyph glyph-name="percent" unicode="%" horiz-adv-x="512" 
d="M384 0h-64v64v64v64h64h64v-64v-64v-64h-64zM64 0h-64v64h64v64h64v64h64v64h64v64h64v64h64h64v-64h-64v-64h-64v-64h-64v-64h-64v-64h-64v-64h-64zM128 192h-64h-64v64v64v64h64h64v-64v-64v-64z" />
    <glyph glyph-name="ampersand" unicode="&#x26;" 
d="M128 -64v64h-64h-64v64v64v64v64v64v64h64h64v64h64v-64h64h64v-64h-64h-64h-64v-64h64h64h64v-64h-64h-64h-64v-64v-64h64v64h64h64v-64v-64h-64h-64v-64h-64z" />
    <glyph glyph-name="quotesingle" unicode="'" horiz-adv-x="192" 
d="M0 192v64v64v64h64h64v-64v-64h-64v-64h-64z" />
    <glyph glyph-name="parenleft" unicode="(" horiz-adv-x="256" 
d="M128 0h-64h-64v64v64v64v64v64v64h64h64h64v-64h-64v-64v-64v-64v-64h64v-64h-64z" />
    <glyph glyph-name="parenright" unicode=")" horiz-adv-x="256" 
d="M128 0h-64h-64v64h64v64v64v64v64h-64v64h64h64h64v-64v-64v-64v-64v-64v-64h-64z" />
    <glyph glyph-name="asterisk" unicode="*" 
d="M256 192h-64v64h-64v-64h-64h-64v64h64v64h-64v64h64h64v-64h64v64h64h64v-64h-64v-64h64v-64h-64z" />
    <glyph glyph-name="plus" unicode="+" horiz-adv-x="448" 
d="M192 0h-64v64v64h-64h-64v64h64h64v64v64h64h64v-64v-64h64h64v-64h-64h-64v-64v-64h-64z" />
    <glyph glyph-name="comma" unicode="," horiz-adv-x="192" 
d="M0 -64v64v64v64h64h64v-64v-64h-64v-64h-64z" />
    <glyph glyph-name="hyphen" unicode="-" 
d="M256 192h64v-64h-64h-64h-64h-64h-64v64h64h64h64h64z" />
    <glyph glyph-name="period" unicode="." horiz-adv-x="192" 
d="M64 0h-64v64v64h64h64v-64v-64h-64z" />
    <glyph glyph-name="slash" unicode="/" horiz-adv-x="512" 
d="M64 0h-64v64h64v64h64v64h64v64h64v64h64v64h64h64v-64h-64v-64h-64v-64h-64v-64h-64v-64h-64v-64h-64z" />
    <glyph glyph-name="zero" unicode="0" 
d="M256 0h-64h-64h-64h-64v64v64v64v64v64v64h64h64h64h64h64v-64v-64v-64v-64v-64v-64h-64zM192 64v64v64v64v64h-64v-64v-64v-64v-64h64z" />
    <glyph glyph-name="one" unicode="1" horiz-adv-x="320" 
d="M192 0h-64h-64h-64v64h64v64v64v64v64h-64v64h64h64h64v-64v-64v-64v-64v-64h64v-64h-64z" />
    <glyph glyph-name="two" unicode="2" 
d="M256 64h64v-64h-64h-64h-64h-64h-64v64v64v64h64v64h64h64v64h-64h-64h-64v64h64h64h64h64h64v-64v-64v-64h-64h-64h-64v-64v-64h64h64z" />
    <glyph glyph-name="three" unicode="3" 
d="M256 0h-64h-64h-64h-64v64v64h64h64v-64h64v64v64h-64h-64h-64v64h64h64h64v64h-64h-64h-64v64h64h64h64h64h64v-64v-64v-64v-64v-64v-64h-64z" />
    <glyph glyph-name="four" unicode="4" 
d="M256 0h-64v64v64h-64h-64h-64v64v64h64v64h64v64h64h64h64v-64v-64v-64v-64v-64v-64h-64zM192 192v64h-64v-64h64z" />
    <glyph glyph-name="five" unicode="5" 
d="M256 0h-64h-64h-64h-64v64h64h64h64v64v64h-64h-64h-64v64v64v64h64h64h64h64h64v-64h-64h-64h-64v-64h64h64h64v-64v-64v-64v-64h-64z" />
    <glyph glyph-name="six" unicode="6" 
d="M256 0h-64h-64h-64h-64v64v64v64v64v64v64h64h64h64h64h64v-64h-64h-64h-64v-64h64h64h64v-64v-64v-64v-64h-64zM192 64v64v64h-64v-64v-64h64z" />
    <glyph glyph-name="seven" unicode="7" 
d="M256 0h-64v64v64v64v64v64h-64h-64h-64v64h64h64h64h64h64v-64v-64v-64v-64v-64v-64h-64z" />
    <glyph glyph-name="eight" unicode="8" 
d="M256 0h-64h-64h-64h-64v64v64v64v64v64v64h64h64h64h64h64v-64v-64v-64v-64v-64v-64h-64zM192 64v64v64h-64v-64v-64h64zM192 256v64h-64v-64h64z" />
    <glyph glyph-name="nine" unicode="9" 
d="M256 0h-64h-64h-64h-64v64h64h64h64v64h-64h-64h-64v64v64v64v64h64h64h64h64h64v-64v-64v-64v-64v-64v-64h-64zM192 192v64v64h-64v-64v-64h64z" />
    <glyph glyph-name="colon" unicode=":" horiz-adv-x="192" 
d="M64 64h-64v64v64h64h64v-64v-64h-64zM64 256h-64v64v64h64h64v-64v-64h-64z" />
    <glyph glyph-name="semicolon" unicode=";" horiz-adv-x="192" 
d="M64 0h-64v64v64v64h64h64v-64v-64v-64h-64zM64 256h-64v64v64h64h64v-64v-64h-64z" />
    <glyph glyph-name="less" unicode="&#x3c;" horiz-adv-x="320" 
d="M192 0h-64v64h-64v64h-64v64h64v64h64v64h64h64v-64h-64v-64h-64v-64h64v-64h64v-64h-64z" />
    <glyph glyph-name="equal" unicode="=" 
d="M256 128h64v-64h-64h-64h-64h-64h-64v64h64h64h64h64zM256 256h64v-64h-64h-64h-64h-64h-64v64h64h64h64h64z" />
    <glyph glyph-name="greater" unicode="&#x3e;" horiz-adv-x="320" 
d="M64 0h-64v64h64v64h64v64h-64v64h-64v64h64h64v-64h64v-64h64v-64h-64v-64h-64v-64h-64z" />
    <glyph glyph-name="question" unicode="?" 
d="M128 64h64v-64h-64h-64v64h64zM256 128h-64h-64h-64v64h64h64v64v64h-64h-64h-64v64h64h64h64h64h64v-64v-64v-64v-64h-64z" />
    <glyph glyph-name="at" unicode="@" horiz-adv-x="512" 
d="M256 64h64v-64h-64h-64h-64h-64h-64v64v64v64v64v64v64h64h64h64h64h64h64h64v-64v-64v-64v-64h-64h-64h-64h-64v64v64v64h-64v-64v-64v-64v-64h64h64zM320 192v64h-64v-64h64z" />
    <glyph glyph-name="A" unicode="A" 
d="M256 0h-64v64v64h-64v-64v-64h-64h-64v64v64v64v64v64v64h64h64h64h64h64v-64v-64v-64v-64v-64v-64h-64zM192 192v64v64h-64v-64v-64h64z" />
    <glyph glyph-name="B" unicode="B" 
d="M256 0h-64h-64h-64h-64v64v64v64v64v64v64h64h64h64h64h64v-64v-64h-64v-64h64v-64v-64v-64h-64zM192 64v64v64h-64v-64v-64h64zM192 256v64h-64v-64h64z" />
    <glyph glyph-name="C" unicode="C" 
d="M256 0h-64h-64h-64h-64v64v64v64v64v64v64h64h64h64h64h64v-64v-64h-64h-64v64h-64v-64v-64v-64v-64h64v64h64h64v-64v-64h-64z" />
    <glyph glyph-name="D" unicode="D" 
d="M192 0h-64h-64h-64v64v64v64v64v64v64h64h64h64h64h64v-64v-64v-64v-64v-64h-64v-64h-64zM192 64v64v64v64v64h-64v-64v-64v-64v-64h64z" />
    <glyph glyph-name="E" unicode="E" 
d="M256 0h-64h-64h-64h-64v64v64v64v64v64v64h64h64h64h64h64v-64h-64h-64h-64v-64h64h64v-64h-64h-64v-64v-64h64v64h64h64v-64v-64h-64z" />
    <glyph glyph-name="F" unicode="F" 
d="M64 0h-64v64v64v64v64v64v64h64h64h64h64h64v-64h-64h-64h-64v-64v-64h64h64h64v-64h-64h-64h-64v-64v-64h-64z" />
    <glyph glyph-name="G" unicode="G" 
d="M256 0h-64h-64h-64h-64v64v64v64v64v64v64h64h64h64h64h64v-64v-64h-64h-64v64h-64v-64v-64v-64v-64h64v64v64h64h64v-64v-64v-64h-64z" />
    <glyph glyph-name="H" unicode="H" 
d="M256 0h-64v64v64v64h-64v-64v-64v-64h-64h-64v64v64v64v64v64v64h64h64v-64v-64h64v64v64h64h64v-64v-64v-64v-64v-64v-64h-64z" />
    <glyph glyph-name="I" unicode="I" horiz-adv-x="320" 
d="M192 0h-64h-64h-64v64h64v64v64v64v64h-64v64h64h64h64h64v-64h-64v-64v-64v-64v-64h64v-64h-64z" />
    <glyph glyph-name="J" unicode="J" 
d="M256 0h-64h-64h-64h-64v64v64h64h64v-64h64v64v64v64v64v64h64h64v-64v-64v-64v-64v-64v-64h-64z" />
    <glyph glyph-name="K" unicode="K" 
d="M256 0h-64v64v64v64h-64v-64v-64v-64h-64h-64v64v64v64v64v64v64h64h64v-64v-64h64v64v64h64h64v-64v-64h-64v-64h64v-64v-64v-64h-64z" />
    <glyph glyph-name="L" unicode="L" 
d="M256 64h64v-64h-64h-64h-64h-64h-64v64v64v64v64v64v64h64h64v-64v-64v-64v-64v-64h64h64z" />
    <glyph glyph-name="M" unicode="M" horiz-adv-x="512" 
d="M192 128v64h-64v-64v-64v-64h-64h-64v64v64v64v64v64v64h64h64v-64h64v-64h64v64h64v64h64h64v-64v-64v-64v-64v-64v-64h-64h-64v64v64v64h-64v-64h-64z" />
    <glyph glyph-name="N" unicode="N" horiz-adv-x="448" 
d="M320 0h-64v64v64h-64v64h-64v-64v-64v-64h-64h-64v64v64v64v64v64v64h64h64v-64h64v-64h64v64v64h64h64v-64v-64v-64v-64v-64v-64h-64z" />
    <glyph glyph-name="O" unicode="O" 
d="M256 0h-64h-64h-64h-64v64v64v64v64v64v64h64h64h64h64h64v-64v-64v-64v-64v-64v-64h-64zM192 64v64v64v64v64h-64v-64v-64v-64v-64h64z" />
    <glyph glyph-name="P" unicode="P" 
d="M64 0h-64v64v64v64v64v64v64h64h64h64h64h64v-64v-64v-64v-64h-64h-64h-64v-64v-64h-64zM192 192v64v64h-64v-64v-64h64z" />
    <glyph glyph-name="Q" unicode="Q" horiz-adv-x="448" 
d="M320 -64h-64h-64v64h-64h-64h-64v64v64v64v64v64v64h64h64h64h64h64v-64v-64v-64v-64v-64v-64h64v-64h-64zM192 64v64v64v64v64h-64v-64v-64v-64v-64h64z" />
    <glyph glyph-name="R" unicode="R" 
d="M256 0h-64v64v64h-64v-64v-64h-64h-64v64v64v64v64v64v64h64h64h64h64h64v-64v-64v-64h-64v-64h64v-64v-64h-64zM192 192v64v64h-64v-64v-64h64z" />
    <glyph glyph-name="S" unicode="S" 
d="M256 0h-64h-64h-64h-64v64v64h64h64v-64h64v64v64h-64h-64h-64v64v64v64h64h64h64h64h64v-64h-64h-64h-64v-64h64h64h64v-64v-64v-64v-64h-64z" />
    <glyph glyph-name="T" unicode="T" horiz-adv-x="448" 
d="M192 0h-64v64v64v64v64v64h-64h-64v64h64h64h64h64h64h64v-64h-64h-64v-64v-64v-64v-64v-64h-64z" />
    <glyph glyph-name="U" unicode="U" 
d="M256 0h-64h-64h-64h-64v64v64v64v64v64v64h64h64v-64v-64v-64v-64v-64h64v64v64v64v64v64h64h64v-64v-64v-64v-64v-64v-64h-64z" />
    <glyph glyph-name="V" unicode="V" 
d="M256 0h-64v64h-64v64h-64v64h-64v64v64v64h64h64v-64v-64v-64h64v64v64v64h64h64v-64v-64v-64v-64v-64v-64h-64z" />
    <glyph glyph-name="W" unicode="W" horiz-adv-x="512" 
d="M384 0h-64v64h-64v64h-64v-64h-64v-64h-64h-64v64v64v64v64v64v64h64h64v-64v-64v-64h64v64h64v-64h64v64v64v64h64h64v-64v-64v-64v-64v-64v-64h-64z" />
    <glyph glyph-name="X" unicode="X" 
d="M256 0h-64v64v64v64h-64v-64v-64v-64h-64h-64v64v64v64h64v64h-64v64v64h64h64v-64v-64h64v64v64h64h64v-64v-64h-64v-64h64v-64v-64v-64h-64z" />
    <glyph glyph-name="Y" unicode="Y" horiz-adv-x="448" 
d="M192 0h-64v64v64v64h-64h-64v64v64v64h64h64v-64v-64h64h64v64v64h64h64v-64v-64v-64h-64h-64v-64v-64v-64h-64z" />
    <glyph glyph-name="Z" unicode="Z" 
d="M256 64h64v-64h-64h-64h-64h-64h-64v64v64v64v64h64h64h64v64h-64h-64h-64v64h64h64h64h64h64v-64v-64v-64h-64h-64h-64v-64v-64h64h64z" />
    <glyph glyph-name="bracketleft" unicode="[" horiz-adv-x="320" 
d="M192 64h64v-64h-64h-64h-64h-64v64v64v64v64v64v64h64h64h64h64v-64h-64h-64v-64v-64v-64v-64h64z" />
    <glyph glyph-name="backslash" unicode="\" horiz-adv-x="512" 
d="M384 0h-64v64h-64v64h-64v64h-64v64h-64v64h-64v64h64h64v-64h64v-64h64v-64h64v-64h64v-64h64v-64h-64z" />
    <glyph glyph-name="bracketright" unicode="]" horiz-adv-x="320" 
d="M192 0h-64h-64h-64v64h64h64v64v64v64v64h-64h-64v64h64h64h64h64v-64v-64v-64v-64v-64v-64h-64z" />
    <glyph glyph-name="asciicircum" unicode="^" horiz-adv-x="448" 
d="M320 192h-64v64h-64h-64v-64h-64h-64v64h64v64h64v64h64h64v-64h64v-64h64v-64h-64z" />
    <glyph glyph-name="underscore" unicode="_" horiz-adv-x="448" 
d="M320 0h64v-64h-64h-64h-64h-64h-64h-64v64h64h64h64h64h64z" />
    <glyph glyph-name="grave" unicode="`" horiz-adv-x="320" 
d="M192 192h-64v64h-64v64h-64v64h64h64v-64h64v-64h64v-64h-64z" />
    <glyph glyph-name="a" unicode="a" 
d="M256 0h-64h-64h-64h-64v64v64v64v64h64h64h64v64h-64h-64v64h64h64h64h64v-64v-64v-64v-64v-64v-64h-64zM192 64v64v64h-64v-64v-64h64z" />
    <glyph glyph-name="b" unicode="b" 
d="M256 0h-64h-64h-64h-64v64v64v64v64v64v64h64h64v-64v-64h64h64h64v-64v-64v-64v-64h-64zM192 64v64v64h-64v-64v-64h64z" />
    <glyph glyph-name="c" unicode="c" 
d="M256 0h-64h-64h-64h-64v64v64v64v64v64v64h64h64h64h64h64v-64v-64h-64h-64v64h-64v-64v-64v-64v-64h64v64h64h64v-64v-64h-64z" />
    <glyph glyph-name="d" unicode="d" 
d="M256 0h-64h-64h-64h-64v64v64v64v64h64h64h64v64v64h64h64v-64v-64v-64v-64v-64v-64h-64zM192 64v64v64h-64v-64v-64h64z" />
    <glyph glyph-name="e" unicode="e" 
d="M256 64h64v-64h-64h-64h-64h-64h-64v64v64v64v64v64v64h64h64h64h64h64v-64v-64v-64v-64h-64h-64h-64v-64h64h64zM192 192v64v64h-64v-64v-64h64z" />
    <glyph glyph-name="f" unicode="f" horiz-adv-x="320" 
d="M128 0h-64v64v64v64h-64v64h64v64v64h64h64h64v-64h-64v-64h64v-64h-64v-64v-64v-64h-64z" />
    <glyph glyph-name="g" unicode="g" 
d="M256 -128h-64h-64h-64v64h64h64v64h-64h-64h-64v64v64v64v64v64v64h64h64h64h64h64v-64v-64v-64v-64v-64v-64v-64v-64h-64zM192 64v64v64v64v64h-64v-64v-64v-64v-64h64z" />
    <glyph glyph-name="h" unicode="h" 
d="M256 0h-64v64v64v64h-64v-64v-64v-64h-64h-64v64v64v64v64v64v64h64h64v-64v-64h64h64h64v-64v-64v-64v-64h-64z" />
    <glyph glyph-name="i" unicode="i" horiz-adv-x="192" 
d="M64 0h-64v64v64v64v64h64h64v-64v-64v-64v-64h-64zM64 384h64v-64h-64h-64v64h64z" />
    <glyph glyph-name="j" unicode="j" horiz-adv-x="256" 
d="M128 -128h-64h-64v64h64v64v64v64v64v64h64h64v-64v-64v-64v-64v-64v-64h-64zM128 384h64v-64h-64h-64v64h64z" />
    <glyph glyph-name="k" unicode="k" 
d="M256 0h-64v64v64v64h-64v-64v-64v-64h-64h-64v64v64v64v64v64v64h64h64v-64v-64h64v64h64h64v-64h-64v-64h64v-64v-64v-64h-64z" />
    <glyph glyph-name="l" unicode="l" horiz-adv-x="256" 
d="M128 0h-64h-64v64v64v64v64v64v64h64h64v-64v-64v-64v-64v-64h64v-64h-64z" />
    <glyph glyph-name="m" unicode="m" horiz-adv-x="576" 
d="M448 0h-64v64v64v64v64v64h-64v-64v-64v-64v-64v-64h-64h-64v64v64v64v64v64h-64v-64v-64v-64v-64v-64h-64h-64v64v64v64v64v64v64h64h64h64h64h64h64h64h64v-64v-64v-64v-64v-64v-64h-64z" />
    <glyph glyph-name="n" unicode="n" 
d="M256 0h-64v64v64v64v64v64h-64v-64v-64v-64v-64v-64h-64h-64v64v64v64v64v64v64h64h64h64h64h64v-64v-64v-64v-64v-64v-64h-64z" />
    <glyph glyph-name="o" unicode="o" 
d="M256 0h-64h-64h-64h-64v64v64v64v64v64v64h64h64h64h64h64v-64v-64v-64v-64v-64v-64h-64zM192 64v64v64v64v64h-64v-64v-64v-64v-64h64z" />
    <glyph glyph-name="p" unicode="p" 
d="M64 -128h-64v64v64v64v64v64v64v64v64h64h64h64h64h64v-64v-64v-64v-64v-64v-64h-64h-64h-64v-64v-64h-64zM192 64v64v64v64v64h-64v-64v-64v-64v-64h64z" />
    <glyph glyph-name="q" unicode="q" 
d="M256 -128h-64v64v64h-64h-64h-64v64v64v64v64v64v64h64h64h64h64h64v-64v-64v-64v-64v-64v-64v-64v-64h-64zM192 64v64v64v64v64h-64v-64v-64v-64v-64h64z" />
    <glyph glyph-name="r" unicode="r" 
d="M64 0h-64v64v64v64v64v64v64h64h64h64h64h64v-64v-64h-64h-64v64h-64v-64v-64v-64v-64v-64h-64z" />
    <glyph glyph-name="s" unicode="s" 
d="M256 0h-64h-64h-64h-64v64v64h64h64v-64h64v64v64h-64h-64h-64v64v64v64h64h64h64h64h64v-64h-64h-64h-64v-64h64h64h64v-64v-64v-64v-64h-64z" />
    <glyph glyph-name="t" unicode="t" horiz-adv-x="320" 
d="M192 0h-64h-64v64v64v64h-64v64h64v64v64h64h64v-64v-64h64v-64h-64v-64v-64h64v-64h-64z" />
    <glyph glyph-name="u" unicode="u" 
d="M256 0h-64h-64h-64h-64v64v64v64v64v64v64h64h64v-64v-64v-64v-64v-64h64v64v64v64v64v64h64h64v-64v-64v-64v-64v-64v-64h-64z" />
    <glyph glyph-name="v" unicode="v" 
d="M256 0h-64h-64h-64v64h-64v64v64v64v64v64h64h64v-64v-64v-64v-64v-64h64v64v64v64v64v64h64h64v-64v-64v-64v-64v-64v-64h-64z" />
    <glyph glyph-name="w" unicode="w" horiz-adv-x="576" 
d="M448 0h-64h-64h-64h-64h-64h-64h-64v64v64v64v64v64v64h64h64v-64v-64v-64v-64v-64h64v64v64v64v64v64h64h64v-64v-64v-64v-64v-64h64v64v64v64v64v64h64h64v-64v-64v-64v-64v-64v-64h-64z" />
    <glyph glyph-name="x" unicode="x" 
d="M256 0h-64v64v64v64h-64v-64v-64v-64h-64h-64v64v64v64h64v64h-64v64v64h64h64v-64v-64h64v64v64h64h64v-64v-64h-64v-64h64v-64v-64v-64h-64z" />
    <glyph glyph-name="y" unicode="y" 
d="M256 -128h-64h-64h-64h-64v64h64h64h64v64h-64h-64h-64v64v64v64v64v64v64h64h64v-64v-64v-64v-64v-64h64v64v64v64v64v64h64h64v-64v-64v-64v-64v-64v-64v-64v-64h-64z" />
    <glyph glyph-name="z" unicode="z" 
d="M256 64h64v-64h-64h-64h-64h-64h-64v64v64v64v64h64h64h64v64h-64h-64h-64v64h64h64h64h64h64v-64v-64v-64h-64h-64h-64v-64v-64h64h64z" />
    <glyph glyph-name="braceleft" unicode="{" horiz-adv-x="320" 
d="M192 0h-64h-64v64v64v64h-64v64h64v64v64h64h64h64v-64h-64v-64v-64v-64v-64h64v-64h-64z" />
    <glyph glyph-name="bar" unicode="|" horiz-adv-x="192" 
d="M64 -64h-64v64v64v64v64v64v64v64v64h64h64v-64v-64v-64v-64v-64v-64v-64v-64h-64z" />
    <glyph glyph-name="braceright" unicode="}" horiz-adv-x="320" 
d="M128 0h-64h-64v64h64v64v64v64v64h-64v64h64h64h64v-64v-64h64v-64h-64v-64v-64v-64h-64z" />
    <glyph glyph-name="asciitilde" unicode="~" horiz-adv-x="512" 
d="M320 128h-64h-64v64h-64v-64h-64h-64v64h64v64h64h64h64v-64h64v64h64h64v-64h-64v-64h-64z" />
    <glyph glyph-name="uni00A0" unicode="&#xa0;" horiz-adv-x="320" 
 />
    <glyph glyph-name="exclamdown" unicode="&#xa1;" horiz-adv-x="192" 
d="M64 -128h-64v64v64v64v64h64h64v-64v-64v-64v-64h-64zM64 256h64v-64h-64h-64v64h64z" />
    <glyph glyph-name="cent" unicode="&#xa2;" 
d="M128 -64v64h-64h-64v64v64v64v64v64v64h64h64v64h64v-64h64h64v-64v-64h-64h-64v64h-64v-64v-64v-64v-64h64h64h64v-64h-64h-64v-64h-64z" />
    <glyph glyph-name="sterling" unicode="&#xa3;" 
d="M256 64h64v-64h-64h-64h-64h-64h-64v64h64v64v64h-64v64h64v64v64h64h64h64h64v-64h-64h-64v-64h64v-64h-64v-64v-64h64z" />
    <glyph glyph-name="currency" unicode="&#xa4;" horiz-adv-x="512" 
d="M384 0h-64v64h-64h-64h-64v-64h-64h-64v64h64v64v64v64v64h-64v64h64h64v-64h64h64h64v64h64h64v-64h-64v-64v-64v-64v-64h64v-64h-64zM256 128v64v64h-64v-64v-64h64z" />
    <glyph glyph-name="yen" unicode="&#xa5;" horiz-adv-x="448" 
d="M192 0h-64v64h-64v64h64v64h-64h-64v64v64v64h64h64v-64v-64h64h64v64v64h64h64v-64v-64v-64h-64h-64v-64h64v-64h-64v-64h-64z" />
    <glyph glyph-name="brokenbar" unicode="&#xa6;" horiz-adv-x="192" 
d="M64 -64h-64v64v64v64h64h64v-64v-64v-64h-64zM64 256h-64v64v64v64h64h64v-64v-64v-64h-64z" />
    <glyph glyph-name="section" unicode="&#xa7;" 
d="M256 0h-64h-64h-64h-64v64h64v64v64h-64v64v64v64h64h64h64h64h64v-64h-64v-64v-64h64v-64v-64v-64h-64zM192 128v64v64h-64v-64v-64h64z" />
    <glyph glyph-name="dieresis" unicode="&#xa8;" 
d="M256 256h-64v64v64h64h64v-64v-64h-64zM64 256h-64v64v64h64h64v-64v-64h-64z" />
    <glyph glyph-name="copyright" unicode="&#xa9;" horiz-adv-x="448" 
d="M320 0h-64h-64h-64h-64h-64v64v64v64v64v64v64h64h64h64h64h64h64v-64v-64v-64v-64v-64v-64h-64zM256 64h64v64h-64h-64h-64v64v64h64h64h64v64h-64h-64h-64h-64v-64v-64v-64v-64h64h64h64z" />
    <glyph glyph-name="ordfeminine" unicode="&#xaa;" 
d="M256 0h64v-64h-64h-64h-64h-64h-64v64h64h64h64h64zM256 64h-64h-64h-64h-64v64v64v64h64h64h64v64h-64h-64h-64v64h64h64h64h64h64v-64v-64v-64v-64v-64h-64zM192 128v64h-64v-64h64z" />
    <glyph glyph-name="guillemotleft" unicode="&#xab;" horiz-adv-x="512" 
d="M384 0h-64v64h-64v64h-64v-64h64v-64h-64h-64v64h-64v64h-64v64h64v64h64v64h64h64v-64h-64v-64h-64v-64h64v64h64v64h64v64h64h64v-64h-64v-64h-64v-64h64v-64h64v-64h-64z" />
    <glyph glyph-name="logicalnot" unicode="&#xac;" 
d="M256 64h-64v64v64v64h-64h-64h-64v64h64h64h64h64h64v-64v-64v-64v-64h-64z" />
    <glyph glyph-name="registered" unicode="&#xae;" horiz-adv-x="448" 
d="M320 0h-64h-64h-64h-64h-64v64v64v64v64v64v64h64h64h64h64h64h64v-64v-64v-64v-64v-64v-64h-64zM320 64v64h-64v64h64v64v64h-64h-64h-64h-64v-64v-64v-64v-64h64v64h64h64v-64h64zM256 192h-64h-64v64h64h64v-64z" />
    <glyph glyph-name="macron" unicode="&#xaf;" horiz-adv-x="512" 
d="M384 448h64v-64h-64h-64h-64h-64h-64h-64h-64v64h64h64h64h64h64h64z" />
    <glyph glyph-name="degree" unicode="&#xb0;" horiz-adv-x="256" 
d="M128 192h-64h-64v64v64v64h64h64h64v-64v-64v-64h-64zM128 256v64h-64v-64h64z" />
    <glyph glyph-name="plusminus" unicode="&#xb1;" horiz-adv-x="448" 
d="M320 64h64v-64h-64h-64h-64h-64h-64h-64v64h64h64v64v64h-64h-64v64h64h64v64v64h64h64v-64v-64h64h64v-64h-64h-64v-64v-64h64z" />
    <glyph glyph-name="uni00B2" unicode="&#xb2;" horiz-adv-x="256" 
d="M128 192h-64h-64v64h64v64h-64v64h64h64v-64h64v-64v-64h-64z" />
    <glyph glyph-name="uni00B3" unicode="&#xb3;" horiz-adv-x="256" 
d="M64 192h-64v64h64v64h-64v64h64h64v-64h64v-64h-64v-64h-64z" />
    <glyph glyph-name="acute" unicode="&#xb4;" horiz-adv-x="320" 
d="M64 192h-64v64h64v64h64v64h64h64v-64h-64v-64h-64v-64h-64z" />
    <glyph glyph-name="uni00B5" unicode="&#xb5;" 
d="M64 -128h-64v64v64v64v64v64v64v64h64h64v-64v-64v-64v-64h64v64v64v64v64h64h64v-64v-64v-64v-64v-64h-64h-64h-64v-64v-64h-64z" />
    <glyph glyph-name="paragraph" unicode="&#xb6;" horiz-adv-x="576" 
d="M384 0h-64v64v64v64v64v64h-64v-64v-64v-64v-64v-64h-64h-64v64v64h-64v64h-64v64v64h64v64h64h64h64h64h64h64h64v-64h-64v-64v-64v-64v-64v-64h-64z" />
    <glyph glyph-name="periodcentered" unicode="&#xb7;" horiz-adv-x="192" 
d="M64 128h-64v64v64h64h64v-64v-64h-64z" />
    <glyph glyph-name="cedilla" unicode="&#xb8;" horiz-adv-x="256" 
d="M64 -128h-64v64h64v64h64h64v-64h-64v-64h-64z" />
    <glyph glyph-name="uni00B9" unicode="&#xb9;" horiz-adv-x="256" 
d="M128 192h-64h-64v64h64v64h-64v64h64h64v-64v-64h64v-64h-64z" />
    <glyph glyph-name="ordmasculine" unicode="&#xba;" 
d="M256 0h64v-64h-64h-64h-64h-64h-64v64h64h64h64h64zM256 64h-64h-64h-64h-64v64v64v64v64v64h64h64h64h64h64v-64v-64v-64v-64v-64h-64zM192 128v64v64v64h-64v-64v-64v-64h64z" />
    <glyph glyph-name="guillemotright" unicode="&#xbb;" horiz-adv-x="512" 
d="M256 0h-64v64h-64v-64h-64h-64v64h64v64h64v64h-64v64h-64v64h64h64v-64h64v64h64h64v-64h64v-64h64v-64h-64v-64h-64v-64h-64zM256 64v64h-64v-64h64zM320 128v64h-64v64h-64v-64h64v-64h64z" />
    <glyph glyph-name="onequarter" unicode="&#xbc;" horiz-adv-x="512" 
d="M384 0v64h-64h-64v64h-64v-64h-64v-64h-64h-64v64h64v64h64v64h-64h-64v64h64v64h-64v64h64h64v-64v-64h64h64v64h64v64h64h64v-64h-64v-64h-64v-64v-64h64v64h64v-64v-64v-64h-64z" />
    <glyph glyph-name="onehalf" unicode="&#xbd;" horiz-adv-x="512" 
d="M384 0h-64h-64v64h64v64h-64h-64v-64h-64v-64h-64h-64v64h64v64h64v64h-64h-64v64h64v64h-64v64h64h64v-64v-64h64h64v64h64v64h64h64v-64h-64v-64h-64v-64h64v-64h64v-64v-64h-64z" />
    <glyph glyph-name="threequarters" unicode="&#xbe;" horiz-adv-x="512" 
d="M384 0v64h-64h-64v64h-64v-64h-64v-64h-64h-64v64h64v64h64v64h64v64h64v64h64v64h64h64v-64h-64v-64h-64v-64v-64h64v64h64v-64v-64v-64h-64zM128 192h-64h-64v64h64v64h-64v64h64h64v-64h64v-64h-64v-64z" />
    <glyph glyph-name="questiondown" unicode="&#xbf;" 
d="M256 -64h64v-64h-64h-64h-64h-64h-64v64v64v64v64h64h64h64h64v-64h-64h-64v-64v-64h64h64zM192 256h64v-64h-64h-64v64h64z" />
    <glyph glyph-name="Agrave" unicode="&#xc0;" 
d="M256 0h-64v64v64h-64v-64v-64h-64h-64v64v64v64v64v64v64h64h64h64h64h64v-64v-64v-64v-64v-64v-64h-64zM192 192v64v64h-64v-64v-64h64zM192 448h-64v64h-64v64h64h64v-64h64v-64h-64z" />
    <glyph glyph-name="Aacute" unicode="&#xc1;" 
d="M256 0h-64v64v64h-64v-64v-64h-64h-64v64v64v64v64v64v64h64h64h64h64h64v-64v-64v-64v-64v-64v-64h-64zM192 192v64v64h-64v-64v-64h64zM128 448h-64v64h64v64h64h64v-64h-64v-64h-64z" />
    <glyph glyph-name="Acircumflex" unicode="&#xc2;" 
d="M256 0h-64v64v64h-64v-64v-64h-64h-64v64v64v64v64v64v64h64h64h64h64h64v-64v-64v-64v-64v-64v-64h-64zM192 192v64v64h-64v-64v-64h64zM256 448h-64v64h-64v-64h-64h-64v64h64v64h64h64h64v-64h64v-64h-64z" />
    <glyph glyph-name="Atilde" unicode="&#xc3;" horiz-adv-x="448" 
d="M256 0h-64v64v64h-64v-64v-64h-64h-64v64v64v64v64v64v64h64h64h64h64h64v-64v-64v-64v-64v-64v-64h-64zM192 192v64v64h-64v-64v-64h64zM256 448h-64h-64v64h-64v-64h-64h-64v64h64v64h64h64h64v-64h64v64h64h64v-64h-64v-64h-64z" />
    <glyph glyph-name="Adieresis" unicode="&#xc4;" 
d="M256 0h-64v64v64h-64v-64v-64h-64h-64v64v64v64v64v64v64h64h64h64h64h64v-64v-64v-64v-64v-64v-64h-64zM192 192v64v64h-64v-64v-64h64zM256 448h-64v64v64h64h64v-64v-64h-64zM64 448h-64v64v64h64h64v-64v-64h-64z" />
    <glyph glyph-name="Aring" unicode="&#xc5;" 
d="M256 0h-64v64v64h-64v-64v-64h-64h-64v64v64v64v64v64v64v64v64h64h64h64h64h64v-64v-64v-64v-64v-64v-64v-64v-64h-64zM192 192v64v64h-64v-64v-64h64zM192 384v64h-64v-64h64z" />
    <glyph glyph-name="AE" unicode="&#xc6;" horiz-adv-x="576" 
d="M448 0h-64h-64h-64h-64v64v64h-64v-64v-64h-64h-64v64v64v64v64v64v64h64h64h64h64h64h64h64h64v-64h-64h-64h-64v-64h64h64v-64h-64h-64v-64v-64h64v64h64h64v-64v-64h-64zM192 192v64v64h-64v-64v-64h64z" />
    <glyph glyph-name="Ccedilla" unicode="&#xc7;" 
d="M128 -128h-64v64h64v64h-64h-64v64v64v64v64v64v64h64h64h64h64h64v-64v-64h-64h-64v64h-64v-64v-64v-64v-64h64v64h64h64v-64v-64h-64v-64h-64v-64h-64z" />
    <glyph glyph-name="Egrave" unicode="&#xc8;" 
d="M256 0h-64h-64h-64h-64v64v64v64v64v64v64h64h64h64h64h64v-64h-64h-64h-64v-64h64h64v-64h-64h-64v-64v-64h64v64h64h64v-64v-64h-64zM192 448h-64v64h-64v64h64h64v-64h64v-64h-64z" />
    <glyph glyph-name="Eacute" unicode="&#xc9;" 
d="M256 0h-64h-64h-64h-64v64v64v64v64v64v64h64h64h64h64h64v-64h-64h-64h-64v-64h64h64v-64h-64h-64v-64v-64h64v64h64h64v-64v-64h-64zM128 448h-64v64h64v64h64h64v-64h-64v-64h-64z" />
    <glyph glyph-name="Ecircumflex" unicode="&#xca;" 
d="M256 0h-64h-64h-64h-64v64v64v64v64v64v64h64h64h64h64h64v-64h-64h-64h-64v-64h64h64v-64h-64h-64v-64v-64h64v64h64h64v-64v-64h-64zM256 448h-64v64h-64v-64h-64h-64v64h64v64h64h64h64v-64h64v-64h-64z" />
    <glyph glyph-name="Edieresis" unicode="&#xcb;" 
d="M256 0h-64h-64h-64h-64v64v64v64v64v64v64h64h64h64h64h64v-64h-64h-64h-64v-64h64h64v-64h-64h-64v-64v-64h64v64h64h64v-64v-64h-64zM256 448h-64v64v64h64h64v-64v-64h-64zM64 448h-64v64v64h64h64v-64v-64h-64z" />
    <glyph glyph-name="Igrave" unicode="&#xcc;" horiz-adv-x="320" 
d="M192 0h-64h-64h-64v64h64v64v64v64v64h-64v64h64h64h64h64v-64h-64v-64v-64v-64v-64h64v-64h-64zM128 448h-64v64h-64v64h64h64v-64h64v-64h-64z" />
    <glyph glyph-name="Iacute" unicode="&#xcd;" horiz-adv-x="320" 
d="M192 0h-64h-64h-64v64h64v64v64v64v64h-64v64h64h64h64h64v-64h-64v-64v-64v-64v-64h64v-64h-64zM128 448h-64v64h64v64h64h64v-64h-64v-64h-64z" />
    <glyph glyph-name="Icircumflex" unicode="&#xce;" 
d="M192 0h-64h-64h-64v64h64v64v64v64v64h-64v64h64h64h64h64v-64h-64v-64v-64v-64v-64h64v-64h-64zM256 448h-64v64h-64v-64h-64h-64v64h64v64h64h64h64v-64h64v-64h-64z" />
    <glyph glyph-name="Idieresis" unicode="&#xcf;" 
d="M192 0h-64h-64h-64v64h64v64v64v64v64h-64v64h64h64h64h64v-64h-64v-64v-64v-64v-64h64v-64h-64zM256 448h-64v64v64h64h64v-64v-64h-64zM64 448h-64v64v64h64h64v-64v-64h-64z" />
    <glyph glyph-name="Eth" unicode="&#xd0;" 
d="M192 0h-64h-64h-64v64v64v64v64v64v64h64h64h64h64h64v-64v-64v-64v-64v-64h-64v-64h-64zM192 64v64v64h-64v-64v-64h64zM192 256v64h-64v-64h64z" />
    <glyph glyph-name="Ntilde" unicode="&#xd1;" horiz-adv-x="512" 
d="M320 0h-64v64v64h-64v64h-64v-64v-64v-64h-64h-64v64v64v64v64v64v64h64h64v-64h64v-64h64v64v64h64h64v-64v-64v-64v-64v-64v-64h-64zM320 448h-64h-64v64h-64v-64h-64h-64v64h64v64h64h64h64v-64h64v64h64h64v-64h-64v-64h-64z" />
    <glyph glyph-name="Ograve" unicode="&#xd2;" 
d="M256 0h-64h-64h-64h-64v64v64v64v64v64v64h64h64h64h64h64v-64v-64v-64v-64v-64v-64h-64zM192 64v64v64v64v64h-64v-64v-64v-64v-64h64zM192 448h-64v64h-64v64h64h64v-64h64v-64h-64z" />
    <glyph glyph-name="Oacute" unicode="&#xd3;" 
d="M256 0h-64h-64h-64h-64v64v64v64v64v64v64h64h64h64h64h64v-64v-64v-64v-64v-64v-64h-64zM192 64v64v64v64v64h-64v-64v-64v-64v-64h64zM128 448h-64v64h64v64h64h64v-64h-64v-64h-64z" />
    <glyph glyph-name="Ocircumflex" unicode="&#xd4;" 
d="M256 0h-64h-64h-64h-64v64v64v64v64v64v64h64h64h64h64h64v-64v-64v-64v-64v-64v-64h-64zM192 64v64v64v64v64h-64v-64v-64v-64v-64h64zM256 448h-64v64h-64v-64h-64h-64v64h64v64h64h64h64v-64h64v-64h-64z" />
    <glyph glyph-name="Otilde" unicode="&#xd5;" horiz-adv-x="448" 
d="M256 0h-64h-64h-64h-64v64v64v64v64v64v64h64h64h64h64h64v-64v-64v-64v-64v-64v-64h-64zM192 64v64v64v64v64h-64v-64v-64v-64v-64h64zM256 448h-64h-64v64h-64v-64h-64h-64v64h64v64h64h64h64v-64h64v64h64h64v-64h-64v-64h-64z" />
    <glyph glyph-name="Odieresis" unicode="&#xd6;" 
d="M256 0h-64h-64h-64h-64v64v64v64v64v64v64h64h64h64h64h64v-64v-64v-64v-64v-64v-64h-64zM192 64v64v64v64v64h-64v-64v-64v-64v-64h64zM256 448h-64v64v64h64h64v-64v-64h-64zM64 448h-64v64v64h64h64v-64v-64h-64z" />
    <glyph glyph-name="multiply" unicode="&#xd7;" 
d="M256 0v64h64v-64h-64zM0 0v64h64v-64h-64zM256 64h-64v64h64v-64zM64 64v64h64v-64h-64zM192 128h-64v64h64v-64zM192 192v64h64v-64h-64zM128 192h-64v64h64v-64zM256 256v64h64v-64h-64zM64 256h-64v64h64v-64z" />
    <glyph glyph-name="Oslash" unicode="&#xd8;" 
d="M256 0h-64h-64h-64h-64v64v64v64v64v64v64h64h64h64h64h64v-64v-64v-64v-64v-64v-64h-64zM192 64v64h-64v-64h64zM192 256v64h-64v-64h64z" />
    <glyph glyph-name="Ugrave" unicode="&#xd9;" 
d="M256 0h-64h-64h-64h-64v64v64v64v64v64v64h64h64v-64v-64v-64v-64v-64h64v64v64v64v64v64h64h64v-64v-64v-64v-64v-64v-64h-64zM192 448h-64v64h-64v64h64h64v-64h64v-64h-64z" />
    <glyph glyph-name="Uacute" unicode="&#xda;" 
d="M256 0h-64h-64h-64h-64v64v64v64v64v64v64h64h64v-64v-64v-64v-64v-64h64v64v64v64v64v64h64h64v-64v-64v-64v-64v-64v-64h-64zM128 448h-64v64h64v64h64h64v-64h-64v-64h-64z" />
    <glyph glyph-name="Ucircumflex" unicode="&#xdb;" 
d="M256 0h-64h-64h-64h-64v64v64v64v64v64v64h64h64v-64v-64v-64v-64v-64h64v64v64v64v64v64h64h64v-64v-64v-64v-64v-64v-64h-64zM256 448h-64v64h-64v-64h-64h-64v64h64v64h64h64h64v-64h64v-64h-64z" />
    <glyph glyph-name="Udieresis" unicode="&#xdc;" 
d="M256 0h-64h-64h-64h-64v64v64v64v64v64v64h64h64v-64v-64v-64v-64v-64h64v64v64v64v64v64h64h64v-64v-64v-64v-64v-64v-64h-64zM256 448h-64v64v64h64h64v-64v-64h-64zM64 448h-64v64v64h64h64v-64v-64h-64z" />
    <glyph glyph-name="Yacute" unicode="&#xdd;" horiz-adv-x="448" 
d="M192 0h-64v64v64v64h-64h-64v64v64v64h64h64v-64v-64h64h64v64v64h64h64v-64v-64v-64h-64h-64v-64v-64v-64h-64zM192 448h-64v64h64v64h64h64v-64h-64v-64h-64z" />
    <glyph glyph-name="Thorn" unicode="&#xde;" 
d="M64 0h-64v64v64v64v64v64v64h64h64v-64h64h64v-64h64v-64v-64h-64v-64h-64h-64v-64h-64zM192 128v64v64h-64v-64v-64h64z" />
    <glyph glyph-name="germandbls" unicode="&#xdf;" horiz-adv-x="448" 
d="M256 0h-64v64h64v64v64h-64v64h64v64h-64h-64v-64v-64v-64v-64v-64h-64h-64v64v64v64v64v64h64v64h64h64h64h64v-64h64v-64h-64v-64h64v-64v-64h-64v-64h-64z" />
    <glyph glyph-name="agrave" unicode="&#xe0;" 
d="M256 0h-64h-64h-64h-64v64v64v64v64h64h64h64v64h-64h-64v64h64h64h64h64v-64v-64v-64v-64v-64v-64h-64zM192 64v64v64h-64v-64v-64h64zM192 448h-64v64h-64v64h64h64v-64h64v-64h-64z" />
    <glyph glyph-name="aacute" unicode="&#xe1;" 
d="M256 0h-64h-64h-64h-64v64v64v64v64h64h64h64v64h-64h-64v64h64h64h64h64v-64v-64v-64v-64v-64v-64h-64zM192 64v64v64h-64v-64v-64h64zM128 448h-64v64h64v64h64h64v-64h-64v-64h-64z" />
    <glyph glyph-name="acircumflex" unicode="&#xe2;" 
d="M256 0h-64h-64h-64h-64v64v64v64v64h64h64h64v64h-64h-64v64h64h64h64h64v-64v-64v-64v-64v-64v-64h-64zM192 64v64v64h-64v-64v-64h64zM256 448h-64v64h-64v-64h-64h-64v64h64v64h64h64h64v-64h64v-64h-64z" />
    <glyph glyph-name="atilde" unicode="&#xe3;" horiz-adv-x="448" 
d="M256 0h-64h-64h-64h-64v64v64v64v64h64h64h64v64h-64h-64v64h64h64h64h64v-64v-64v-64v-64v-64v-64h-64zM192 64v64v64h-64v-64v-64h64zM256 448h-64h-64v64h-64v-64h-64h-64v64h64v64h64h64h64v-64h64v64h64h64v-64h-64v-64h-64z" />
    <glyph glyph-name="adieresis" unicode="&#xe4;" 
d="M256 0h-64h-64h-64h-64v64v64v64v64h64h64h64v64h-64h-64v64h64h64h64h64v-64v-64v-64v-64v-64v-64h-64zM192 64v64v64h-64v-64v-64h64zM256 448h-64v64v64h64h64v-64v-64h-64zM64 448h-64v64v64h64h64v-64v-64h-64z" />
    <glyph glyph-name="aring" unicode="&#xe5;" 
d="M256 0h-64h-64h-64h-64v64v64v64v64h64h64h64v64h-64h-64v64h-64v64v64h64h64h64h64h64v-64v-64v-64v-64v-64v-64v-64v-64h-64zM192 64v64v64h-64v-64v-64h64zM192 384v64h-64v-64h64z" />
    <glyph glyph-name="ae" unicode="&#xe6;" horiz-adv-x="576" 
d="M448 64h64v-64h-64h-64h-64h-64h-64h-64h-64h-64v64v64v64v64h64h64h64v64h-64h-64v64h64h64h64h64h64h64h64v-64v-64v-64v-64h-64h-64h-64v-64h64h64zM192 64v64v64h-64v-64v-64h64zM384 192v64v64h-64v-64v-64h64z" />
    <glyph glyph-name="ccedilla" unicode="&#xe7;" 
d="M128 -128h-64v64h64v64h-64h-64v64v64v64v64v64v64h64h64h64h64h64v-64v-64h-64h-64v64h-64v-64v-64v-64v-64h64v64h64h64v-64v-64h-64v-64h-64v-64h-64z" />
    <glyph glyph-name="egrave" unicode="&#xe8;" 
d="M256 64h64v-64h-64h-64h-64h-64h-64v64v64v64v64v64v64h64h64h64h64h64v-64v-64v-64v-64h-64h-64h-64v-64h64h64zM192 192v64v64h-64v-64v-64h64zM192 448h-64v64h-64v64h64h64v-64h64v-64h-64z" />
    <glyph glyph-name="eacute" unicode="&#xe9;" 
d="M256 64h64v-64h-64h-64h-64h-64h-64v64v64v64v64v64v64h64h64h64h64h64v-64v-64v-64v-64h-64h-64h-64v-64h64h64zM192 192v64v64h-64v-64v-64h64zM128 448h-64v64h64v64h64h64v-64h-64v-64h-64z" />
    <glyph glyph-name="ecircumflex" unicode="&#xea;" 
d="M256 64h64v-64h-64h-64h-64h-64h-64v64v64v64v64v64v64h64h64h64h64h64v-64v-64v-64v-64h-64h-64h-64v-64h64h64zM192 192v64v64h-64v-64v-64h64zM256 448h-64v64h-64v-64h-64h-64v64h64v64h64h64h64v-64h64v-64h-64z" />
    <glyph glyph-name="edieresis" unicode="&#xeb;" 
d="M256 64h64v-64h-64h-64h-64h-64h-64v64v64v64v64v64v64h64h64h64h64h64v-64v-64v-64v-64h-64h-64h-64v-64h64h64zM192 192v64v64h-64v-64v-64h64zM256 448h-64v64v64h64h64v-64v-64h-64zM64 448h-64v64v64h64h64v-64v-64h-64z" />
    <glyph glyph-name="igrave" unicode="&#xec;" horiz-adv-x="192" 
d="M64 0h-64v64v64v64v64h64h64v-64v-64v-64v-64h-64zM64 320h-64v64h-64v64h64h64v-64h64v-64h-64z" />
    <glyph glyph-name="iacute" unicode="&#xed;" horiz-adv-x="256" 
d="M64 0h-64v64v64v64v64h64h64v-64v-64v-64v-64h-64zM64 320h-64v64h64v64h64h64v-64h-64v-64h-64z" />
    <glyph glyph-name="icircumflex" unicode="&#xee;" horiz-adv-x="320" 
d="M64 0h-64v64v64v64v64h64h64v-64v-64v-64v-64h-64zM192 320h-64v64h-64v-64h-64h-64v64h64v64h64h64h64v-64h64v-64h-64z" />
    <glyph glyph-name="idieresis" unicode="&#xef;" horiz-adv-x="320" 
d="M64 0h-64v64v64v64v64h64h64v-64v-64v-64v-64h-64zM192 320h-64v64v64h64h64v-64v-64h-64zM0 320h-64v64v64h64h64v-64v-64h-64z" />
    <glyph glyph-name="eth" unicode="&#xf0;" 
d="M256 0h-64h-64h-64h-64v64v64v64v64h64v64v64h64h64v64h64v-64h64v-64v-64v-64v-64v-64v-64h-64zM192 64v64v64h-64v-64v-64h64zM192 256v64h-64v-64h64z" />
    <glyph glyph-name="ntilde" unicode="&#xf1;" horiz-adv-x="448" 
d="M256 0h-64v64v64v64v64v64h-64v-64v-64v-64v-64v-64h-64h-64v64v64v64v64v64v64h64h64h64h64h64v-64v-64v-64v-64v-64v-64h-64zM256 448h-64h-64v64h-64v-64h-64h-64v64h64v64h64h64h64v-64h64v64h64h64v-64h-64v-64h-64z" />
    <glyph glyph-name="ograve" unicode="&#xf2;" 
d="M256 0h-64h-64h-64h-64v64v64v64v64v64v64h64h64h64h64h64v-64v-64v-64v-64v-64v-64h-64zM192 64v64v64v64v64h-64v-64v-64v-64v-64h64zM192 448h-64v64h-64v64h64h64v-64h64v-64h-64z" />
    <glyph glyph-name="oacute" unicode="&#xf3;" 
d="M256 0h-64h-64h-64h-64v64v64v64v64v64v64h64h64h64h64h64v-64v-64v-64v-64v-64v-64h-64zM192 64v64v64v64v64h-64v-64v-64v-64v-64h64zM128 448h-64v64h64v64h64h64v-64h-64v-64h-64z" />
    <glyph glyph-name="ocircumflex" unicode="&#xf4;" 
d="M256 0h-64h-64h-64h-64v64v64v64v64v64v64h64h64h64h64h64v-64v-64v-64v-64v-64v-64h-64zM192 64v64v64v64v64h-64v-64v-64v-64v-64h64zM256 448h-64v64h-64v-64h-64h-64v64h64v64h64h64h64v-64h64v-64h-64z" />
    <glyph glyph-name="otilde" unicode="&#xf5;" horiz-adv-x="448" 
d="M256 0h-64h-64h-64h-64v64v64v64v64v64v64h64h64h64h64h64v-64v-64v-64v-64v-64v-64h-64zM192 64v64v64v64v64h-64v-64v-64v-64v-64h64zM256 448h-64h-64v64h-64v-64h-64h-64v64h64v64h64h64h64v-64h64v64h64h64v-64h-64v-64h-64z" />
    <glyph glyph-name="odieresis" unicode="&#xf6;" 
d="M256 0h-64h-64h-64h-64v64v64v64v64v64v64h64h64h64h64h64v-64v-64v-64v-64v-64v-64h-64zM192 64v64v64v64v64h-64v-64v-64v-64v-64h64zM256 448h-64v64v64h64h64v-64v-64h-64zM64 448h-64v64v64h64h64v-64v-64h-64z" />
    <glyph glyph-name="divide" unicode="&#xf7;" horiz-adv-x="448" 
d="M192 64h64v-64h-64h-64v64h64zM320 192h64v-64h-64h-64h-64h-64h-64h-64v64h64h64h64h64h64zM192 320h64v-64h-64h-64v64h64z" />
    <glyph glyph-name="oslash" unicode="&#xf8;" 
d="M256 0h-64h-64h-64h-64v64v64v64v64v64v64h64h64h64h64h64v-64v-64v-64v-64v-64v-64h-64zM192 64v64h-64v-64h64zM192 256v64h-64v-64h64z" />
    <glyph glyph-name="ugrave" unicode="&#xf9;" 
d="M256 0h-64h-64h-64h-64v64v64v64v64v64v64h64h64v-64v-64v-64v-64v-64h64v64v64v64v64v64h64h64v-64v-64v-64v-64v-64v-64h-64zM192 448h-64v64h-64v64h64h64v-64h64v-64h-64z" />
    <glyph glyph-name="uacute" unicode="&#xfa;" 
d="M256 0h-64h-64h-64h-64v64v64v64v64v64v64h64h64v-64v-64v-64v-64v-64h64v64v64v64v64v64h64h64v-64v-64v-64v-64v-64v-64h-64zM128 448h-64v64h64v64h64h64v-64h-64v-64h-64z" />
    <glyph glyph-name="ucircumflex" unicode="&#xfb;" 
d="M256 0h-64h-64h-64h-64v64v64v64v64v64v64h64h64v-64v-64v-64v-64v-64h64v64v64v64v64v64h64h64v-64v-64v-64v-64v-64v-64h-64zM256 448h-64v64h-64v-64h-64h-64v64h64v64h64h64h64v-64h64v-64h-64z" />
    <glyph glyph-name="udieresis" unicode="&#xfc;" 
d="M256 0h-64h-64h-64h-64v64v64v64v64v64v64h64h64v-64v-64v-64v-64v-64h64v64v64v64v64v64h64h64v-64v-64v-64v-64v-64v-64h-64zM256 448h-64v64v64h64h64v-64v-64h-64zM64 448h-64v64v64h64h64v-64v-64h-64z" />
    <glyph glyph-name="yacute" unicode="&#xfd;" 
d="M256 -128h-64h-64h-64h-64v64h64h64h64v64h-64h-64h-64v64v64v64v64v64v64h64h64v-64v-64v-64v-64v-64h64v64v64v64v64v64h64h64v-64v-64v-64v-64v-64v-64v-64v-64h-64zM128 448h-64v64h64v64h64h64v-64h-64v-64h-64z" />
    <glyph glyph-name="thorn" unicode="&#xfe;" 
d="M64 -64h-64v64v64v64v64v64v64v64v64h64h64v-64h64h64h64v-64v-64v-64v-64v-64v-64h-64h-64h-64v-64h-64zM192 64v64v64v64v64h-64v-64v-64v-64v-64h64z" />
    <glyph glyph-name="ydieresis" unicode="&#xff;" 
d="M256 -128h-64h-64h-64h-64v64h64h64h64v64h-64h-64h-64v64v64v64v64v64v64h64h64v-64v-64v-64v-64v-64h64v64v64v64v64v64h64h64v-64v-64v-64v-64v-64v-64v-64v-64h-64zM256 448h-64v64v64h64h64v-64v-64h-64zM64 448h-64v64v64h64h64v-64v-64h-64z" />
    <glyph glyph-name="OE" unicode="&#x152;" horiz-adv-x="576" 
d="M448 64h64v-64h-64h-64h-64h-64h-64h-64h-64h-64v64v64v64v64v64v64h64h64h64h64h64h64h64h64v-64h-64h-64h-64v-64h64h64v-64h-64h-64v-64v-64h64h64zM192 64v64v64v64v64h-64v-64v-64v-64v-64h64z" />
    <glyph glyph-name="oe" unicode="&#x153;" horiz-adv-x="576" 
d="M448 64h64v-64h-64h-64h-64h-64h-64h-64h-64h-64v64v64v64v64v64v64h64h64h64h64h64h64h64h64v-64v-64v-64v-64h-64h-64h-64v-64h64h64zM192 64v64v64v64v64h-64v-64v-64v-64v-64h64zM384 192v64v64h-64v-64v-64h64z" />
    <glyph glyph-name="Scaron" unicode="&#x160;" 
d="M256 0h-64h-64h-64h-64v64v64h64h64v-64h64v64v64h-64h-64h-64v64v64v64h64h64h64h64h64v-64h-64h-64h-64v-64h64h64h64v-64v-64v-64v-64h-64zM192 448h-64h-64v64h-64v64h64h64v-64h64v64h64h64v-64h-64v-64h-64z" />
    <glyph glyph-name="scaron" unicode="&#x161;" 
d="M256 0h-64h-64h-64h-64v64v64h64h64v-64h64v64v64h-64h-64h-64v64v64v64h64h64h64h64h64v-64h-64h-64h-64v-64h64h64h64v-64v-64v-64v-64h-64zM192 448h-64h-64v64h-64v64h64h64v-64h64v64h64h64v-64h-64v-64h-64z" />
    <glyph glyph-name="Ydieresis" unicode="&#x178;" horiz-adv-x="448" 
d="M192 0h-64v64v64v64h-64h-64v64v64v64h64h64v-64v-64h64h64v64v64h64h64v-64v-64v-64h-64h-64v-64v-64v-64h-64zM320 448h-64v64v64h64h64v-64v-64h-64zM64 448h-64v64v64h64h64v-64v-64h-64z" />
    <glyph glyph-name="Zcaron" unicode="&#x17d;" 
d="M256 64h64v-64h-64h-64h-64h-64h-64v64v64v64v64h64h64h64v64h-64h-64h-64v64h64h64h64h64h64v-64v-64v-64h-64h-64h-64v-64v-64h64h64zM192 448h-64h-64v64h-64v64h64h64v-64h64v64h64h64v-64h-64v-64h-64z" />
    <glyph glyph-name="zcaron" unicode="&#x17e;" 
d="M256 64h64v-64h-64h-64h-64h-64h-64v64v64v64v64h64h64h64v64h-64h-64h-64v64h64h64h64h64h64v-64v-64v-64h-64h-64h-64v-64v-64h64h64zM192 448h-64h-64v64h-64v64h64h64v-64h64v64h64h64v-64h-64v-64h-64z" />
    <glyph glyph-name="uni0191" unicode="&#x191;" 
d="M64 -128h-64h-64v64h64v64v64v64v64v64v64v64h64h64h64h64h64v-64h-64h-64h-64v-64v-64h64h64h64v-64h-64h-64h-64v-64v-64v-64v-64h-64z" />
    <glyph glyph-name="florin" unicode="&#x192;" horiz-adv-x="320" 
d="M128 0h-64h-64v64h64v64v64h-64v64h64v64v64h64h64h64v-64h-64v-64h64v-64h-64v-64v-64v-64h-64z" />
    <glyph glyph-name="circumflex" unicode="&#x2c6;" horiz-adv-x="448" 
d="M320 192h-64v64h-64h-64v-64h-64h-64v64h64v64h64v64h64h64v-64h64v-64h64v-64h-64z" />
    <glyph glyph-name="tilde" unicode="&#x2dc;" horiz-adv-x="512" 
d="M320 128h-64h-64v64h-64v-64h-64h-64v64h64v64h64h64h64v-64h64v64h64h64v-64h-64v-64h-64z" />
    <glyph glyph-name="endash" unicode="&#x2013;" horiz-adv-x="448" 
d="M320 256h64v-64h-64h-64h-64h-64h-64h-64v64h64h64h64h64h64z" />
    <glyph glyph-name="emdash" unicode="&#x2014;" horiz-adv-x="576" 
d="M448 256h64v-64h-64h-64h-64h-64h-64h-64h-64h-64v64h64h64h64h64h64h64h64z" />
    <glyph glyph-name="quoteleft" unicode="&#x2018;" horiz-adv-x="192" 
d="M64 192h-64v64v64h64v64h64v-64v-64v-64h-64z" />
    <glyph glyph-name="quoteright" unicode="&#x2019;" horiz-adv-x="192" 
d="M64 192v64h-64v64v64h64h64v-64v-64v-64h-64z" />
    <glyph glyph-name="quotesinglbase" unicode="&#x201a;" horiz-adv-x="192" 
d="M0 -64v64v64v64h64h64v-64v-64h-64v-64h-64z" />
    <glyph glyph-name="quotedblleft" unicode="&#x201c;" 
d="M256 192h-64v64v64h64v64h64v-64v-64v-64h-64zM64 192h-64v64v64h64v64h64v-64v-64v-64h-64z" />
    <glyph glyph-name="quotedblright" unicode="&#x201d;" 
d="M256 192v64h-64v64v64h64h64v-64v-64v-64h-64zM64 192v64h-64v64v64h64h64v-64v-64v-64h-64z" />
    <glyph glyph-name="quotedblbase" unicode="&#x201e;" 
d="M192 -64v64v64v64h64h64v-64v-64h-64v-64h-64zM0 -64v64v64v64h64h64v-64v-64h-64v-64h-64z" />
    <glyph glyph-name="dagger" unicode="&#x2020;" horiz-adv-x="320" 
d="M128 0h-64v64v64v64v64h-64v64h64v64h64h64v-64h64v-64h-64v-64v-64v-64v-64h-64z" />
    <glyph glyph-name="daggerdbl" unicode="&#x2021;" horiz-adv-x="320" 
d="M128 0h-64v64h-64v64h64v64v64h-64v64h64v64h64h64v-64h64v-64h-64v-64v-64h64v-64h-64v-64h-64z" />
    <glyph glyph-name="bullet" unicode="&#x2022;" horiz-adv-x="192" 
d="M64 128h-64v64v64h64h64v-64v-64h-64z" />
    <glyph glyph-name="ellipsis" unicode="&#x2026;" horiz-adv-x="576" 
d="M448 0h-64v64v64h64h64v-64v-64h-64zM256 0h-64v64v64h64h64v-64v-64h-64zM64 0h-64v64v64h64h64v-64v-64h-64z" />
    <glyph glyph-name="perthousand" unicode="&#x2030;" horiz-adv-x="512" 
d="M384 0h-64v64v64v64h64h64v-64v-64v-64h-64zM64 0h-64v64h64v64h64v64h64v64h64v64h64v64h64h64v-64h-64v-64h-64v-64h-64v-64h-64v-64h-64v-64h-64zM128 192h-64h-64v64v64v64h64h64v-64v-64v-64z" />
    <glyph glyph-name="guilsinglleft" unicode="&#x2039;" horiz-adv-x="320" 
d="M192 0h-64v64h-64v64h-64v64h64v64h64v64h64h64v-64h-64v-64h-64v-64h64v-64h64v-64h-64z" />
    <glyph glyph-name="guilsinglright" unicode="&#x203a;" horiz-adv-x="320" 
d="M64 0h-64v64h64v64h64v64h-64v64h-64v64h64h64v-64h64v-64h64v-64h-64v-64h-64v-64h-64z" />
    <glyph glyph-name="Euro" unicode="&#x20ac;" 
d="M256 64h64v-64h-64h-64h-64h-64h-64v64v64v64v64v64v64h64h64h64h64h64v-64h-64h-64h-64v-64h64h64v-64v-64h-64h-64v-64h64h64z" />
    <glyph glyph-name="trademark" unicode="&#x2122;" horiz-adv-x="512" 
d="M384 192v64h-64v-64h-64v64v64v64h64v-64h64v64h64v-64v-64v-64h-64zM64 192v64v64h-64v64h64h64h64v-64h-64v-64v-64h-64z" />
    <glyph glyph-name="uni3000" unicode="&#x3000;" horiz-adv-x="1024" 
 />
    <glyph glyph-name="uniF100" unicode="&#xf100;" horiz-adv-x="512" 
d="M128 256v64h-64v-64h-64v64v64v64h64v-64h64v64h64v-64v-64v-64h-64zM320 0h-64v64h64v64h-64v64h64h64v-64h64v-64h-64v-64h-64zM128 0h-64h-64v64v64v64h64h64h64v-64v-64v-64h-64zM128 64v64h-64v-64h64zM320 256h-64v64v64v64h64h64v-64h64v-64h-64v-64h-64z" />
  </font>
</defs>
</svg>
